<?xml version="1.0" encoding="UTF-8" standalone="no"?>
<!-- Created with Inkscape (http://www.inkscape.org/) -->

<svg
        version="1.1"
        id="svg1"
        width="1024"
        height="1024"
        viewBox="0 0 1024 1024"
        xmlns="http://www.w3.org/2000/svg"
        xmlns:svg="http://www.w3.org/2000/svg">
    <defs
            id="defs1"/>
    <g
            id="layer1"
            style="display:inline">
        <path
                id="path246523"
                style="display:inline;opacity:1;fill:#ffff00;fill-opacity:1;stroke:none;stroke-width:1.21504;stroke-opacity:1;paint-order:markers stroke fill"
                d="m 374.76542,195.21824 c -48.35034,1.82014 -96.89589,19.1168 -132.78627,55.24326 a 34.834899,34.834899 0 0 1 2.19623,2.37585 c 152.3096,-60.72433 198.30899,120.12842 47.68571,230.54443 2.70113,124.85395 125.5717,200.48438 197.64723,206.73968 66.52359,-118.55736 127.41849,-129.3674 166.36657,-82.70022 31.27234,37.47017 5.90014,122.41327 -20.55259,208.27732 a 34.834899,34.834899 0 0 1 6.78737,3.85088 C 822.65982,695.80579 743.35162,382.67329 515.01672,445.5968 624.13721,302.92321 516.20457,201.74542 395.43776,195.37609 c -6.86175,-0.3619 -13.76514,-0.41786 -20.67234,-0.15785 z"/>
    </g>
</svg>
