<?xml version="1.0" encoding="UTF-8" standalone="no"?>
<!-- Created with Inkscape (http://www.inkscape.org/) -->

<svg
        version="1.1"
        id="svg1"
        width="1024"
        height="1024"
        viewBox="0 0 1024 1024"
        xmlns="http://www.w3.org/2000/svg"
        xmlns:svg="http://www.w3.org/2000/svg">
    <defs
            id="defs1"/>
    <g
            id="g1"
            style="display:inline">
        <path
                id="path246521-3"
                style="display:inline;fill:#6b5294;fill-opacity:1;stroke:none;stroke-width:1.0208;stroke-opacity:1;paint-order:markers stroke fill"
                d="m 382.79923,181.58909 c -54.52486,1.20423 -110.41537,20.83103 -152.26661,61.2305 -4.11024,-1.64159 -8.49564,-2.48486 -12.92157,-2.4847 -19.23879,0 -34.8349,15.59611 -34.8349,34.83489 0,19.23879 15.59611,34.8349 34.8349,34.8349 19.23878,0 34.8349,-15.59611 34.8349,-34.8349 -3e-4,-3.2933 -0.4676,-6.56991 -1.38795,-9.732 90.78912,18.14022 87.92217,85.9885 57.02504,138.26846 -48.19346,81.54648 4.39179,288.6603 241.16971,289.92806 63.48848,0.33993 85.24934,36.74833 73.70861,119.18766 -0.41169,-0.0146 -0.82361,-0.0219 -1.23555,-0.0217 -19.23879,0 -34.8349,15.59612 -34.8349,34.8349 0,19.23879 15.59611,34.8349 34.8349,34.8349 19.23879,0 34.8349,-15.59611 34.8349,-34.8349 -4.2e-4,-7.02276 -2.12347,-13.88141 -6.09066,-19.67628 C 824.6888,710.05498 769.16657,421.41487 558.84338,416.1967 616.10436,265.46542 502.75391,178.93978 382.79923,181.58909 Z m 420.9852,414.93536 c -19.23878,0 -34.8349,15.59611 -34.8349,34.8349 0,19.23878 15.59612,34.8349 34.8349,34.8349 19.23879,0 34.8349,-15.59612 34.8349,-34.8349 0,-19.23879 -15.59611,-34.8349 -34.8349,-34.8349 z"/>
    </g>
</svg>
