<?xml version="1.0" encoding="UTF-8" standalone="no"?>
<svg
   width="1024"
   height="1024"
   viewBox="0 0 1024 1024"
   version="1.1"
   id="svg1"
   sodipodi:docname="2046.svg"
   inkscape:version="1.4.3 (0d15f75042, 2025-12-25)"
   xmlns:inkscape="http://www.inkscape.org/namespaces/inkscape"
   xmlns:sodipodi="http://sodipodi.sourceforge.net/DTD/sodipodi-0.dtd"
   xmlns="http://www.w3.org/2000/svg"
   xmlns:svg="http://www.w3.org/2000/svg">
  <defs
     id="defs1" />
  <sodipodi:namedview
     id="namedview1"
     pagecolor="#ffffff"
     bordercolor="#000000"
     borderopacity="0.25"
     inkscape:showpageshadow="2"
     inkscape:pageopacity="0.0"
     inkscape:pagecheckerboard="0"
     inkscape:deskcolor="#d1d1d1"
     inkscape:zoom="0.35355339"
     inkscape:cx="531.7443"
     inkscape:cy="333.7544"
     inkscape:window-width="1920"
     inkscape:window-height="1011"
     inkscape:window-x="0"
     inkscape:window-y="0"
     inkscape:window-maximized="1"
     inkscape:current-layer="svg1" />
  <path
     d="m 307.41019,411.9604 c -82.14766,61.63052 -149.4585,112.35273 -149.57943,112.71617 -0.14642,0.43926 12.35094,0.66019 37.38293,0.66019 36.10763,0 37.6372,-0.049 38.4667,-1.2328 0.47521,-0.6785 5.78621,-3.68927 11.80317,-6.69089 L 256.4226,511.955 v -11.13579 -11.13578 l 5.40643,-5.37834 5.40644,-5.37833 h 5.37899 5.37898 v 5.55613 5.55613 h 11.29136 11.2907 l 5.52541,-11.11226 5.5254,-11.11225 h 10.96387 10.96453 v 16.66838 16.66838 h 5.1757 c 2.84669,0 5.6411,0.17845 6.20978,0.39677 0.92951,0.3569 1.0341,-1.69233 1.0341,-20.26352 v -20.66029 h 10.78542 10.78542 v 5.55612 5.55613 h 5.55613 5.55613 v 26.80014 26.80014 h 5.88296 5.88295 V 515.205 505.07324 h 10.78543 10.78542 v 5.55613 5.55613 h 5.88296 5.88295 v -5.73393 -5.73392 l 5.40644,-5.37833 5.40644,-5.37833 h 10.78608 10.78607 l 5.36199,5.39271 5.36199,5.39271 0.17976,10.13176 0.17976,10.13176 11.6025,0.17845 11.6025,0.17845 v -10.14679 -10.1468 h 5.22929 5.2293 v -11.11225 -11.11225 h 11.11225 11.11226 v 21.26885 21.2682 l 6.03003,-0.1876 6.02938,-0.18826 0.57064,-2.94148 c 0.57849,-2.98527 0.97788,-42.65863 0.51967,-51.63929 -0.13727,-2.69636 -0.65171,-8.13809 -1.14326,-12.09275 -0.4909,-3.95465 -1.04978,-8.51395 -1.2413,-10.13176 -0.19153,-1.61781 -0.62425,-4.55929 -0.96154,-6.53662 -0.33729,-1.97733 -0.77786,-4.62466 -0.97853,-5.88296 -1.13672,-7.12426 -1.90412,-9.89971 -2.86893,-10.37754 -0.57914,-0.28695 -2.74015,-0.88375 -4.80114,-1.32628 -2.61762,-0.56214 -4.31632,-1.31205 -4.28329,-1.72273 0.0148,-0.18435 0.37854,-0.30035 1.16467,-0.30035 1.24065,0 1.36092,-0.31703 1.18247,-3.10489 l -0.19937,-3.1049 -3.73175,-0.33271 c -4.82992,-0.43011 -5.81303,-1.35308 -3.32781,-3.12255 2.22835,-1.58709 8.21457,-4.34096 16.0644,-7.38964 5.52737,-2.14728 5.73131,-2.29959 5.60451,-4.18932 -0.18957,-2.81075 0.52228,-4.49197 2.21657,-5.23518 1.24848,-0.54777 1.77404,-1.93615 3.401,-8.98197 1.05893,-4.58348 2.08844,-8.33354 2.28782,-8.33289 0.20002,6.6e-4 0.91251,2.42771 1.58317,5.39272 2.18714,9.66374 2.52508,10.57755 4.57432,12.35094 1.63024,1.40995 1.97014,2.16493 1.84072,4.08604 -0.17976,2.67021 -1.06351,2.10283 11.32142,7.26611 3.95466,1.64919 8.34596,3.7579 9.75852,4.6861 2.41594,1.58775 2.49568,1.7407 1.34589,2.58196 -0.67262,0.49156 -2.78395,0.89356 -4.69264,0.89356 -3.35198,0 -3.47029,0.0615 -3.46114,1.79757 0.0144,2.90618 0.72295,4.73905 1.83222,4.73905 2.18323,0 -0.34056,1.27726 -4.39,2.2218 -2.29762,0.536 -4.42464,1.22169 -4.72728,1.52434 -0.82296,0.82296 -4.62205,23.48084 -5.40317,32.22553 -2.26886,25.40654 -2.60354,34.81012 -1.73155,48.67756 0.40723,6.47125 0.95108,13.23665 1.20927,15.03422 l 0.46868,3.26831 6.36601,0.18695 6.36667,0.18695 v -12.11628 -12.11628 h 10.78542 10.78543 v 10.78542 10.78543 h 5.88295 5.88296 v -16.31541 -16.31475 l 5.39271,-0.19021 5.39271,-0.18956 0.18957,-5.39271 0.19021,-5.39272 h 5.2025 5.20315 v 11.11226 11.11225 h 5.55612 5.55613 v 5.55613 5.55613 h 5.88296 5.88296 v -11.11226 -11.11225 h 16.34155 16.34155 v 17.64887 17.64887 h 5.88295 5.88296 v -28.76112 -28.76113 h 5.08026 5.08026 l 5.52737,5.55613 5.52737,5.55612 h 5.73392 5.73392 v 11.11226 11.11225 h 5.55613 5.55613 v -5.55613 -5.55612 h 10.78542 10.78544 v 5.40644 5.40643 l 5.71954,5.6483 c 5.36657,5.29989 6.38497,5.97774 16.50497,10.99525 5.93198,2.94082 11.22991,5.91041 11.7731,6.59937 0.955,1.21189 2.20088,1.24718 38.23923,1.08377 l 37.25154,-0.16865 -150.13637,-112.59327 -150.13635,-112.59329 -53.47936,0.0405 -53.47935,0.0405 -149.35981,112.05598 m 107.983,-69.19927 c -22.75724,17.09326 -41.26045,31.19471 -41.11861,31.33655 0.14119,0.14185 11.63388,-2.0172 25.53792,-4.79788 l 25.28104,-5.05476 5.29466,5.29466 5.29531,5.29531 16.0193,-10.66188 16.01929,-10.66122 10.70241,5.33911 10.70175,5.33976 10.67953,-5.32865 10.68019,-5.328 10.56187,10.56187 10.5612,10.56187 10.62464,-10.59913 10.62462,-10.59847 11.61034,3.9357 c 9.00942,3.05456 13.62231,4.22854 20.59034,5.24106 11.34496,1.64788 8.70286,1.16221 33.21845,6.10389 11.53387,2.32508 21.82904,4.38215 22.87817,4.57172 1.04978,0.18956 2.71662,0.52227 3.70561,0.73863 0.98899,0.21637 1.79757,0.24513 1.79757,0.0634 0,-0.18172 -18.6627,-14.3237 -41.47354,-31.42742 l -41.4729,-31.09797 -53.47151,0.0464 -53.47085,0.0464 -41.37681,31.07902 M 156.41231,557.99568 v 11.7901 h 56.23585 c 61.23636,0 60.0297,-0.0706 61.42723,3.60625 0.88048,2.31397 0.83473,18.35875 -0.0562,20.02363 -0.38893,0.72622 -1.78581,1.80999 -3.1049,2.40875 -2.15708,0.97853 -7.09419,1.10142 -49.00765,1.21908 -51.17651,0.14315 -53.85783,0.31964 -61.97958,4.0795 -5.4888,2.54144 -9.00877,5.92152 -11.52733,11.0678 l -2.11917,4.33182 -0.20068,33.82701 -0.20132,33.82701 h 82.39932 82.39867 v -12.09275 -12.09275 h -64.43342 -64.43277 l 0.21048,-17.48545 c 0.22682,-18.76991 0.38631,-19.69353 3.61802,-20.96425 1.23803,-0.48633 16.71152,-0.79878 48.23241,-0.97265 39.69885,-0.21963 47.29506,-0.41508 52.53154,-1.34916 12.70262,-2.2669 20.29229,-7.79949 23.02067,-16.78081 1.24457,-4.09911 1.33609,-5.77968 1.13933,-21.00543 l -0.21309,-16.55006 -1.96099,-3.81282 c -2.52901,-4.91749 -5.51429,-7.85701 -10.42917,-10.27033 -8.65645,-4.25011 -6.53074,-4.12984 -77.32495,-4.37365 l -64.22229,-0.22094 v 11.7901 m 203.94253,-10.80961 c -13.0569,2.06688 -20.09487,6.85953 -23.59327,16.06701 -1.21908,3.20818 -1.27334,5.38422 -1.28445,51.52491 -0.0118,50.81503 -0.066,49.78159 2.90422,55.52466 1.63285,3.1585 6.03657,7.18113 9.81996,8.97086 5.74896,2.71989 13.90274,4.13114 25.22678,4.36581 11.68094,0.24251 91.0342,0.14969 95.43465,-0.11178 4.89528,-0.29022 14.31847,-2.49503 17.88485,-4.18344 4.11611,-1.94922 8.35511,-5.88753 10.17425,-9.4526 3.27615,-6.42158 3.31668,-7.09158 3.31668,-54.39775 0,-26.9714 -0.25689,-45.57724 -0.65889,-47.6951 -2.27736,-12.01039 -9.85919,-18.21952 -25.16076,-20.60408 -7.80995,-1.21777 -106.37891,-1.22431 -114.06402,-0.008 m 270.58861,3.35002 c -3.04083,2.3558 -8.47015,6.56015 -12.06529,9.3441 -7.03275,5.445 -29.08535,22.61735 -34.97092,27.23155 -1.97733,1.54984 -9.18395,7.1393 -16.01472,12.42089 -6.83076,5.28159 -13.44909,10.43179 -14.70739,11.44497 -1.2583,1.01383 -5.96467,4.67826 -10.45859,8.14397 -4.49393,3.46506 -10.45729,8.06684 -13.25104,10.22524 l -5.08091,3.92524 0.17845,11.8888 0.17779,11.88881 h 64.22229 64.22229 v 13.23665 13.23666 h 17.97571 17.9757 v -68.63501 -68.63451 h -26.33735 -26.33735 l -5.52867,4.28214 m 118.34029,-3.31211 c -21.29632,2.80879 -31.54247,10.68019 -34.97159,26.86813 -1.43021,6.75232 -1.43282,83.88575 -0.003,89.37651 1.88908,7.25303 5.85353,12.62744 11.40247,15.45845 3.73176,1.90346 11.46916,3.89386 17.03508,4.38215 5.0901,0.44645 79.62194,0.69942 97.39567,0.3301 22.45132,-0.46606 32.54909,-5.37637 37.01883,-18.00316 0.77001,-2.17408 0.95827,-7.1308 0.96023,-25.30064 0,-21.31069 -0.0745,-22.80431 -1.36027,-26.24126 -2.7663,-7.39357 -7.26545,-11.5659 -15.30354,-14.19231 -8.13154,-2.65648 -11.11812,-2.79506 -62.33843,-2.89376 l -49.50901,-0.0954 0.0556,-7.19028 c 0.0301,-3.95465 0.42945,-8.3185 0.88636,-9.69773 1.23738,-3.73372 4.21874,-6.71441 8.41198,-8.40936 l 3.71934,-1.50277 52.7832,-0.18564 52.78321,-0.18499 v -11.74438 -11.74369 l -56.37835,0.0752 c -41.0467,0.0556 -58.06676,0.29872 -62.58814,0.89486 m -374.54833,23.70702 c -1.55833,0.77851 -2.53687,1.87208 -3.06829,3.43041 -1.00403,2.94475 -1.18117,76.90726 -0.19283,80.46579 0.35951,1.29426 1.27137,2.91207 2.02635,3.59515 1.31843,1.19358 3.03887,1.24195 44.04963,1.24195 41.01075,0 42.73119,-0.0484 44.04962,-1.24195 0.75498,-0.68308 1.66684,-2.30089 2.02636,-3.59515 0.98833,-3.55853 0.81119,-77.52104 -0.19283,-80.46579 -0.53143,-1.55833 -1.50996,-2.6519 -3.06829,-3.43041 -2.10414,-1.05175 -5.53979,-1.14326 -42.81486,-1.14326 -37.27508,0 -40.71073,0.0915 -42.81486,1.14326 m 265.71359,9.6657 c -6.83076,5.34434 -15.09632,11.78944 -18.36724,14.32369 -5.4705,4.23704 -15.5552,12.0568 -31.65293,24.5437 -3.47618,2.69636 -8.79241,6.81443 -11.81364,9.15127 l -5.49337,4.2488 39.8139,0.16865 c 21.89767,0.0928 39.91717,0.0654 40.04333,-0.0608 0.12616,-0.12616 0.15296,-14.14852 0.0595,-31.16007 l -0.16995,-30.93063 -12.41958,9.71538 m 111.29644,42.0821 -2.13486,1.90739 v 15.72645 15.72711 l 1.81195,1.81195 1.8126,1.8126 41.74024,0.17715 c 26.03601,0.11112 42.37233,-0.0628 43.4195,-0.46084 0.92362,-0.35101 2.20938,-1.44786 2.85781,-2.4375 1.04978,-1.60278 1.1779,-3.45853 1.1779,-17.07823 v -15.27935 l -2.13486,-1.90738 -2.13486,-1.90673 h -42.14028 -42.14028 l -2.13486,1.90738"
     stroke="none"
     fill="#fef020"
     fill-rule="evenodd"
     id="path1"
     style="fill:#fff120;fill-opacity:1;stroke-width:0.653662"
     sodipodi:nodetypes="ccscccccccccccccccccccsssccccccccccccccccccccccccccccccccccccccccccccccsscccssccccccscsccccccscsssccccccccccccccccccccccccccccccccccccccccccccccccccccccccsccccccccccccccccccccccccccccssscccccccsccccccccccccccccccccccccccccccccccccsccccccsccccccccccccccccccsscscccccscccccccccccccscsccscscccsccssscccccccccscscccccc" />
</svg>
